Coordinates
version=1
nRows=8
nColumns=40
inDegrees=yes

Units are S.I. units (second, meters, Newtons, ...)
Angles are in degrees.

endheader
time	pelvis_tilt	pelvis_list	pelvis_rotation	pelvis_tx	pelvis_ty	pelvis_tz	hip_flexion_r	hip_adduction_r	hip_rotation_r	knee_angle_r	knee_angle_r_beta	ankle_angle_r	subtalar_angle_r	mtp_angle_r	hip_flexion_l	hip_adduction_l	hip_rotation_l	knee_angle_l	knee_angle_l_beta	ankle_angle_l	subtalar_angle_l	mtp_angle_l	lumbar_extension	lumbar_bending	lumbar_rotation	arm_flex_r	arm_add_r	arm_rot_r	elbow_flex_r	pro_sup_r	wrist_flex_r	wrist_dev_r	arm_flex_l	arm_add_l	arm_rot_l	elbow_flex_l	pro_sup_l	wrist_flex_l	wrist_dev_l
      0.20000000	    -10.96077722	      2.85856159	      5.25517665	     -0.94641482	      0.92590926	      0.00237559	     23.90812548	    -11.80078088	    -13.93856101	    -71.36888595	     -1.24562204	      9.64119303	    -18.40523630	     19.01717862	     23.45479281	     -8.51852869	      2.90235638	    -28.93263076	     -0.50496967	      7.13424384	      8.12818575	    -13.98896796	     -8.72298067	     -9.73117372	     -8.52076276	    -17.60152491	    -21.66559904	      8.44479344	     89.56781375	     89.95437384	      0.00000000	      0.00000000	      6.56788992	     14.99571303	    -17.90085473	    108.29301173	     89.95437384	      0.00000000	      0.00000000
      0.21000000	    -11.80733750	      2.25258601	      6.29221368	     -0.91260656	      0.91959868	      0.00153009	     28.97344674	    -12.11316223	    -13.20451340	    -72.90445304	     -1.27242274	     10.48645866	    -18.20719791	     18.36012766	     23.32394540	     -8.46233567	      1.06246436	    -31.84800858	     -0.55585261	     10.04929335	      8.85454996	    -14.77086303	     -8.01494917	     -9.02605140	    -10.72797510	    -20.12757160	    -22.87291970	      7.96806024	     89.27914438	     89.95437384	      0.00000000	      0.00000000	     11.30190837	     12.49507928	    -20.12028596	    111.30226281	     89.95437384	      0.00000000	      0.00000000
      0.22000000	    -12.63227689	      1.72951597	      7.33990710	     -0.87885489	      0.91535444	     -0.00012082	     33.75381222	    -12.60755736	    -12.49102430	    -73.29491792	     -1.27923764	     11.04107355	    -17.81969587	     17.74532279	     22.48637124	     -8.38785462	     -0.55709013	    -33.41654660	     -0.58322876	     11.99524183	      8.86452401	    -15.14442365	     -7.31722050	     -8.20207351	    -12.88215906	    -23.20146774	    -24.13938716	      6.88674969	     90.22087581	     89.95437384	      0.00000000	      0.00000000	     16.38310769	     10.20285187	    -22.31827821	    113.76468747	     89.95437384	      0.00000000	      0.00000000
      0.23000000	    -14.34913517	      1.38507492	      7.86380420	     -0.84442061	      0.91148469	     -0.00089536	     39.40440363	    -12.90700386	    -11.00467113	    -72.70909297	     -1.26901307	     11.02848518	    -17.28036647	     17.31172430	     21.63938418	     -8.27690519	     -1.79807533	    -32.99248813	     -0.57582755	     13.19637380	      8.55274607	    -15.50046574	     -5.48010054	     -7.78914968	    -14.38399211	    -26.88559792	    -25.30692787	      5.46559654	     91.75874374	     89.95437384	      0.00000000	      0.00000000	     21.25666747	      8.13789083	    -24.38388055	    115.97309877	     89.95437384	      0.00000000	      0.00000000
      0.24000000	    -16.52099434	      0.30470697	      8.21012009	     -0.80811428	      0.90838515	     -0.00072860	     44.87044558	    -12.18911909	     -9.82611190	    -70.72857174	     -1.23444645	     10.38950409	    -17.09962385	     17.13167985	     20.85273830	     -7.27265288	     -2.97734574	    -31.71946691	     -0.55360913	     13.71480341	      8.61116582	    -15.85331068	     -2.71826787	     -6.78695924	    -15.67147276	    -30.79526187	    -26.40654851	      3.94741586	     93.31233070	     89.95437384	      0.00000000	      0.00000000	     25.53445577	      6.30234586	    -26.15854932	    118.08017532	     89.95437384	      0.00000000	      0.00000000
      0.25000000	    -18.02029313	     -1.10717228	      8.27223104	     -0.77003148	      0.90702823	      0.00024917	     48.91570287	    -10.84281290	     -8.96561658	    -67.60211984	     -1.17987957	      9.27284064	    -16.98359327	     17.13001476	     19.18580370	     -5.48939568	     -3.80153439	    -30.04350483	     -0.52435808	     13.47478405	      8.35632831	    -16.21274792	     -0.43873036	     -5.28566494	    -16.86127040	    -34.54610878	    -27.70529840	      2.54905665	     95.18489926	     89.95437384	      0.00000000	      0.00000000	     29.60896619	      5.04510008	    -27.56731056	    120.24662727	     89.95437384	      0.00000000	      0.00000000
      0.26000000	    -18.51686724	     -2.66739729	      8.43142162	     -0.73027855	      0.90857085	      0.00173855	     51.07079079	     -9.32242012	     -8.77298530	    -63.28341441	     -1.10450394	      8.05105593	    -16.88525608	     17.26254260	     16.35028440	     -3.07167695	     -4.14235574	    -28.12000622	     -0.49078669	     12.15620642	      7.14690670	    -16.44898403	      0.84331158	     -3.45973886	    -18.30895331	    -37.92281311	    -28.89251591	      1.14870982	     96.98254901	     89.95437384	      0.00000000	      0.00000000	     33.50643782	      4.62258046	    -28.67201577	    122.42053363	     89.95437384	      0.00000000	      0.00000000
      0.27000000	    -17.98729023	     -3.41803218	      8.33624432	     -0.68828523	      0.91328711	      0.00356015	     51.47768544	     -8.24047094	     -8.38449545	    -58.17367809	     -1.01532222	      6.63058324	    -16.47069623	     17.40641657	     11.87921021	     -1.03117614	     -3.37638035	    -25.17829783	     -0.43944420	      9.36793011	      5.43993881	    -16.22801936	      1.00273299	     -2.38345679	    -19.43445992	    -40.84204753	    -29.67231886	     -0.22324681	     98.35205555	     89.95437384	      0.00000000	      0.00000000	     36.94125381	      5.03862116	    -29.63204948	    124.57913719	     89.95437384	      0.00000000	      0.00000000
